<?xml version="1.0" encoding="UTF-8" standalone="no"?><!DOCTYPE svg PUBLIC "-//W3C//DTD SVG 1.1//EN" "http://www.w3.org/Graphics/SVG/1.1/DTD/svg11.dtd"><svg width="100%" height="100%" viewBox="0 0 128 128" version="1.1" xmlns="http://www.w3.org/2000/svg" xmlns:xlink="http://www.w3.org/1999/xlink" xml:space="preserve" xmlns:serif="http://www.serif.com/" style="fill-rule:evenodd;clip-rule:evenodd;stroke-linejoin:round;stroke-miterlimit:2;"><rect id="Artboard1" x="0" y="0" width="128" height="128" style="fill:none;"/><g id="Artboard11" serif:id="Artboard1"><g><path d="M66.509,105.606c-0.158,-1.08 0.15,-2.155 -0.175,-3.168c-0.279,-0.884 -0.917,-0.965 -1.337,-1.684c-1.105,-1.886 -2.247,-4.33 -2.352,-6.639c-0.097,-2.074 -0.859,-3.948 -0.963,-6.004c-0.05,-0.992 0.066,-2.015 0.031,-2.997c-0.019,-0.478 -0.047,-0.892 -0.141,-1.411c-0.024,-0.128 -0.109,-0.656 -0.148,-0.868l0.258,-0.643c-0.114,-0.22 2.2,-0.147 2.891,-0.142c1.171,0.014 2.273,0.075 3.442,0.131c2.387,0.118 4.562,0.089 6.888,-0.27c5.181,-0.8 7.563,-2.916 8.782,-3.796c4.757,-3.43 6.936,-9.038 6.936,-9.038c0.785,-1.752 0.782,-4.877 2.465,-6.277c1.983,-1.652 5.313,-1.533 7.589,-2.547c1.332,-0.589 2.293,-0.914 3.654,-0.632c1.011,0.211 2.829,1.381 3.247,-0.261c-0.337,-0.218 -0.469,-0.616 -0.65,-0.837c1.877,-0.186 0.036,-4.54 -0.707,-5.409c-1.146,-1.343 -3.06,-1.958 -5.095,-2.498c-2.418,-0.641 -4.611,-1.38 -6.888,-0.933c-3.975,0.778 -3.678,-1.497 -6.021,-1.497c-2.811,0 -7.813,0.138 -8.678,2.871c-0.403,1.276 -0.818,1.329 -1.515,2.308c-0.597,0.839 0.104,1.579 -0.196,2.536c-0.309,0.984 -0.764,4.448 -1.238,5.657c-0.801,2.046 -1.757,4.6 -3.521,4.6c-2.473,0.296 -4.417,0.39 -6.423,-0.338c-1.207,-0.438 -3.23,-1.124 -4.231,-1.546c-4.617,-1.944 -5.376,-4.07 -5.376,-4.07c-0.495,-0.819 -1.8,-2.14 -2.289,-3.863c-0.536,-1.897 -1.443,-3.48 -1.81,-4.467c-0.38,-1.023 -1.288,-2.662 -2.002,-4.434c-0.914,-2.268 -2.199,-3.961 -3.14,-4.801c-1.438,-1.282 -2.765,-3.266 -5.684,-2.689c-0.522,0.103 -2.418,0.188 -3.871,1.407c-0.985,0.827 -1.296,2.532 -2.209,3.971c-0.527,0.831 -1.454,3.216 -2.304,5.205c-0.589,1.378 -0.863,2.412 -1.501,2.92c-0.498,0.397 -1.115,0.91 -1.862,0.631c-0.463,-0.174 -0.959,-0.468 -1.458,-0.859c-0.675,-0.527 -2.21,-3.138 -3.152,-5.067c-0.817,-1.672 -2.561,-4.172 -3.569,-5.526c-1.452,-1.948 -2.303,-2.441 -4.447,-2.441c-4.602,0 -4.95,2.576 -6.974,6.322c-0.889,1.646 -1.212,4.258 -2.997,6.305c-1.02,1.171 -4.275,5.986 -6.538,6.804l0,-0.024l-0.006,0.024l0,34.322l0.006,0.048l0,-0.215c0.146,-0.448 0.302,-0.877 0.479,-1.261c0.875,-1.865 2.906,-3.595 4.034,-5.51c0.614,-1.044 1.314,-2.066 1.72,-3.161c0.35,-0.944 0.522,-2.35 1.027,-3.169c0.619,-1.003 1.588,-1.344 2.583,-1.507c1.559,-0.257 2.883,2.241 4.877,3.16c0.85,0.39 4.763,1.776 5.938,2.06c1.934,0.463 4.081,0.849 6.045,1.246c1.052,0.212 2.057,0.336 3.14,0.445c0.972,0.098 4.611,0.218 4.836,0.481c-1.849,0.944 -2.934,3.592 -3.628,5.466c-0.725,1.953 -1.23,4.126 -2.105,6.037c-0.97,2.11 -3.004,2.989 -2.761,5.448c0.093,0.981 0.272,2.01 0.108,3.09c-0.174,1.137 -0.634,2.024 -0.968,3.138c-0.429,1.452 -0.941,6.143 -1.603,7.521l4.048,-0.507l0.007,-0.002c0.442,-1.051 0.849,-5.489 0.992,-5.911c0.757,-2.225 1.761,-4.056 3.306,-5.777c1.506,-1.676 1.428,-3.838 2.308,-5.791c0.952,-2.124 2.233,-3.822 3.442,-5.818c2.185,-3.609 3.626,-8.166 8.271,-9.092c0.496,-0.103 3.34,1.948 4.602,3.168c1.446,1.389 3.024,2.998 3.974,4.914c1.838,3.713 3.398,9.091 3.988,12.057c0.339,1.704 0.609,1.805 1.761,3.155c0.53,0.618 1.588,2.549 1.936,3.291c0.365,0.792 0.921,2.594 1.364,3.514c0.261,0.547 0.937,2.229 1.43,3.682l3.782,-0.118c0.013,0.032 0.082,-0.009 0.098,0.02c0.002,0 0.004,0 0.006,-0.001c-0.016,-0.029 -0.031,-0.062 -0.044,-0.093c-1.885,-3.782 -3.091,-8.158 -3.714,-12.346Z" style="fill:#f18a03;fill-rule:nonzero;stroke:#f18a03;stroke-width:1.5px;"/><g><g><g><path d="M64.952,114.459c-0.443,-0.92 -0.998,-2.722 -1.365,-3.513c-0.348,-0.742 -1.406,-2.673 -1.936,-3.292c-1.152,-1.349 -1.422,-1.451 -1.761,-3.154c-0.589,-2.966 -2.149,-8.345 -3.987,-12.057c-0.95,-1.916 -2.529,-3.525 -3.974,-4.915c-1.262,-1.218 -4.106,-3.27 -4.602,-3.168c-4.645,0.928 -6.086,5.484 -8.271,9.093c-1.209,1.996 -2.49,3.694 -3.442,5.817c-0.88,1.953 -0.802,4.115 -2.308,5.792c-1.545,1.722 -2.549,3.552 -3.306,5.777c-0.143,0.422 -0.55,4.859 -0.993,5.911l0,0.002l6.904,-0.486c6.433,0.438 4.575,2.904 14.616,2.367l15.855,-0.491c-0.493,-1.453 -1.169,-3.135 -1.43,-3.683Z" style="fill:none;fill-rule:nonzero;stroke:#f18a03;stroke-width:1.5px;"/></g><g><g><path d="M110.958,9.291l-93.91,0c-8.735,0 -15.816,7.083 -15.816,15.818l0,34.511c2.263,-0.818 5.518,-5.633 6.538,-6.804c1.784,-2.047 2.108,-4.659 2.997,-6.304c2.024,-3.747 2.372,-6.323 6.973,-6.323c2.145,0 2.996,0.495 4.447,2.441c1.01,1.354 2.753,3.855 3.569,5.527c0.942,1.929 2.477,4.539 3.152,5.067c0.5,0.391 0.995,0.684 1.458,0.858c0.747,0.28 1.364,-0.234 1.863,-0.631c0.637,-0.507 0.912,-1.541 1.501,-2.92c0.851,-1.989 1.777,-4.373 2.304,-5.205c0.912,-1.437 1.223,-3.144 2.208,-3.97c1.453,-1.219 3.349,-1.305 3.871,-1.408c2.919,-0.576 4.246,1.408 5.684,2.689c0.941,0.841 2.227,2.533 3.141,4.802c0.713,1.771 1.622,3.41 2.002,4.433c0.367,0.987 1.273,2.57 1.81,4.468c0.488,1.723 1.793,3.043 2.289,3.862c0,0 0.759,2.127 5.375,4.07c1.001,0.422 3.025,1.108 4.232,1.547c2.006,0.729 3.949,0.634 6.423,0.337c1.764,0 2.719,-2.554 3.521,-4.599c0.474,-1.209 0.928,-4.674 1.238,-5.657c0.299,-0.957 -0.402,-1.697 0.195,-2.536c0.698,-0.979 1.113,-1.032 1.516,-2.309c0.865,-2.733 5.866,-2.871 8.678,-2.871c2.343,0 2.045,2.275 6.021,1.497c2.276,-0.447 4.47,0.294 6.887,0.934c2.036,0.54 3.949,1.155 5.096,2.497c0.742,0.869 2.583,5.224 0.707,5.41c0.18,0.22 0.312,0.618 0.65,0.836c-0.418,1.643 -2.237,0.473 -3.247,0.262c-1.361,-0.282 -2.322,0.042 -3.654,0.631c-2.277,1.014 -5.607,0.896 -7.59,2.548c-1.683,1.4 -1.68,4.525 -2.465,6.276c0,0 -2.179,5.608 -6.936,9.039c-1.219,0.879 -3.601,2.995 -8.782,3.795c-2.325,0.36 -4.5,0.389 -6.888,0.27c-1.168,-0.056 -2.27,-0.116 -3.442,-0.131c-0.69,-0.005 -3.005,-0.079 -2.891,0.143l-0.258,0.643c0.04,0.211 0.125,0.74 0.148,0.867c0.095,0.52 0.122,0.934 0.141,1.411c0.036,0.982 -0.081,2.006 -0.031,2.997c0.104,2.056 0.867,3.93 0.963,6.004c0.106,2.31 1.248,4.753 2.353,6.639c0.419,0.718 1.058,0.8 1.336,1.685c0.326,1.013 0.018,2.087 0.176,3.167c0.622,4.187 1.828,8.564 3.713,12.343c0.013,0.031 0.028,0.065 0.044,0.093c0,0 0,0.001 0.001,0.002c2.328,-0.391 4.661,-1.229 7.686,-1.676c5.547,-0.823 13.261,-0.399 18.216,-0.863c12.539,-1.179 19.344,5.142 30.605,2.552l0,-92.946c-0.002,-8.735 -7.08,-15.818 -15.818,-15.818Z" style="fill:none;fill-rule:nonzero;stroke:#f18a03;stroke-width:1.5px;"/></g></g><g><path d="M30.175,98.062c0.875,-1.909 1.381,-4.084 2.105,-6.037c0.695,-1.874 1.779,-4.522 3.629,-5.465c-0.226,-0.263 -3.865,-0.384 -4.837,-0.481c-1.082,-0.11 -2.088,-0.234 -3.14,-0.446c-1.964,-0.397 -4.11,-0.782 -6.045,-1.245c-1.175,-0.285 -5.088,-1.67 -5.938,-2.061c-1.994,-0.919 -3.318,-3.416 -4.877,-3.159c-0.995,0.162 -1.964,0.503 -2.583,1.507c-0.505,0.818 -0.677,2.224 -1.027,3.168c-0.405,1.095 -1.106,2.118 -1.72,3.161c-1.128,1.914 -3.159,3.646 -4.034,5.511c-0.176,0.383 -0.332,0.813 -0.479,1.26l0,21.321c1.021,0.174 2.089,0.389 3.284,0.708c8.821,2.354 10.973,2.553 19.625,1.564l0.811,-0.108l0,-0.001c0.662,-1.379 1.174,-6.069 1.603,-7.521c0.334,-1.114 0.794,-2.001 0.968,-3.138c0.165,-1.08 -0.015,-2.109 -0.108,-3.09c-0.241,-2.459 1.793,-3.337 2.763,-5.448Z" style="fill:none;fill-rule:nonzero;stroke:#f18a03;stroke-width:1.5px;"/></g></g></g></g></g></svg>